<?xml version="1.0" standalone="no"?>
<!DOCTYPE svg PUBLIC "-//W3C//DTD SVG 20010904//EN"
 "http://www.w3.org/TR/2001/REC-SVG-20010904/DTD/svg10.dtd">
<svg version="1.0" xmlns="http://www.w3.org/2000/svg"
 width="148.000000pt" height="154.000000pt" viewBox="0 0 148.000000 154.000000"
 preserveAspectRatio="xMidYMid meet">
<metadata>
Created by potrace 1.16, written by Peter Selinger 2001-2019
</metadata>
<g transform="translate(0.000000,154.000000) scale(0.100000,-0.100000)"
fill="#000000" stroke="none">
<path d="M0 770 l0 -770 740 0 740 0 0 770 0 770 -740 0 -740 0 0 -770z m685
380 l24 -22 26 21 c56 44 132 36 178 -18 12 -14 39 -34 60 -43 42 -20 77 -70
77 -111 0 -15 9 -41 21 -56 18 -24 20 -37 15 -82 -8 -65 -8 -86 -1 -164 5 -49
2 -66 -15 -93 -23 -37 -75 -72 -108 -72 -13 0 -34 -12 -48 -29 -46 -55 -123
-63 -179 -20 l-25 20 -26 -20 c-55 -43 -144 -31 -180 24 -9 14 -29 25 -52 29
-89 14 -150 138 -107 219 13 26 13 32 -1 59 -19 37 -14 101 10 127 9 10 16 28
16 42 1 50 36 105 81 127 24 12 50 31 57 42 32 51 132 62 177 20z"/>
<path d="M573 1120 c-12 -5 -29 -23 -38 -39 -10 -20 -23 -31 -38 -31 -44 -1
-82 -53 -72 -99 4 -21 0 -32 -20 -51 -24 -23 -31 -52 -20 -83 5 -11 14 -11 57
4 60 20 69 32 56 70 -13 37 18 102 50 107 29 4 39 -23 18 -47 -23 -25 -20 -51
4 -51 36 0 34 -28 -4 -63 -30 -28 -36 -41 -36 -75 0 -39 -12 -54 -37 -45 -7 3
-13 13 -13 24 0 45 -59 30 -85 -21 -25 -49 -19 -88 19 -126 19 -19 38 -34 44
-34 5 0 17 20 26 44 16 43 38 62 57 50 12 -7 11 -41 -1 -49 -5 -3 -10 -22 -10
-41 0 -45 29 -74 75 -74 22 0 43 8 55 20 19 19 20 33 20 294 0 246 -2 276 -17
294 -21 25 -60 35 -90 22z"/>
<path d="M783 1120 c-12 -5 -26 -18 -32 -29 -7 -12 -11 -118 -11 -290 0 -258
1 -272 20 -291 28 -28 81 -26 108 3 25 26 27 47 10 94 -13 36 -3 58 24 48 18
-7 38 -47 38 -75 0 -49 85 10 96 66 7 41 -10 89 -40 109 -28 21 -56 19 -56 -3
0 -24 -19 -42 -36 -35 -9 3 -14 20 -14 45 0 34 -6 46 -36 74 -40 36 -42 71 -4
61 25 -7 28 28 4 54 -20 22 -12 49 15 49 29 0 50 -41 53 -105 l3 -56 52 -18
c44 -15 53 -15 58 -4 10 29 5 52 -21 82 -18 21 -23 37 -19 52 14 43 -31 99
-80 99 -8 0 -21 13 -29 28 -8 15 -26 33 -41 40 -30 14 -32 14 -62 2z"/>
</g>
</svg>
